<svg width="26" height="26" viewBox="0 0 26 26" fill="none" xmlns="http://www.w3.org/2000/svg">
<path d="M11.0115 20.0029C11.0133 21.1029 11.9148 22.0014 13.0148 21.9996C14.1148 21.9978 15.0133 21.0964 15.0115 19.9964C15.0097 18.8964 14.1082 17.9978 13.0082 17.9996C11.9082 18.0015 11.0097 18.9029 11.0115 20.0029ZM10.9885 6.00295C10.9903 7.10295 11.8918 8.00147 12.9918 7.99966C14.0918 7.99785 14.9903 7.09637 14.9885 5.99637C14.9867 4.89638 14.0852 3.99786 12.9852 3.99967C11.8852 4.00147 10.9867 4.90295 10.9885 6.00295ZM11 13.0029C11.0018 14.1029 11.9033 15.0015 13.0033 14.9997C14.1033 14.9978 15.0018 14.0964 15 12.9964C14.9982 11.8964 14.0967 10.9978 12.9967 10.9997C11.8967 11.0015 10.9982 11.9029 11 13.0029Z" stroke="black" stroke-width="1.5"/>
</svg>
