<svg width="294" height="41" viewBox="0 0 294 41" fill="none" xmlns="http://www.w3.org/2000/svg">
<path d="M0.773438 2.2H25.8734V9.2H8.02344V17.05H23.8234V24.05H8.02344V32H26.5734V39H0.773438V2.2ZM31.5742 2.2H56.3742V9.2H47.4242V39H40.1742V9.2H31.5742V2.2ZM94.3211 2.2V39H87.0711V24.05H70.6211V39H63.3711V2.2H70.6211V17.05H87.0711V2.2H94.3211ZM103.801 2.2H128.901V9.2H111.051V17.05H126.851V24.05H111.051V32H129.601V39H103.801V2.2ZM170.052 40.5L142.152 15.3L144.302 16.5L144.452 39H137.102V0.749998H137.402L164.702 25.85L163.102 25.15L162.952 2.2H170.252V40.5H170.052ZM190.879 2.2C193.179 2.2 195.229 2.5 197.029 3.1C198.829 3.66666 200.329 4.5 201.529 5.6C202.762 6.66666 203.695 7.96666 204.329 9.5C204.962 11 205.279 12.7 205.279 14.6C205.279 16.1 205.045 17.6 204.579 19.1C204.145 20.6 203.412 21.9667 202.379 23.2C201.379 24.4333 200.045 25.4333 198.379 26.2C196.712 26.9333 194.645 27.3 192.179 27.3H186.979V39H179.729V2.2H190.879ZM192.129 20.3C193.229 20.3 194.145 20.1167 194.879 19.75C195.612 19.3833 196.179 18.9167 196.579 18.35C197.012 17.7833 197.312 17.2 197.479 16.6C197.679 15.9667 197.779 15.3833 197.779 14.85C197.779 14.45 197.712 13.95 197.579 13.35C197.479 12.7167 197.245 12.0833 196.879 11.45C196.512 10.8167 195.945 10.2833 195.179 9.85C194.445 9.41667 193.445 9.2 192.179 9.2H186.979V20.3H192.129ZM198.929 24.8L208.029 39H199.579L190.279 25L198.929 24.8ZM210.486 20.65C210.486 18.1167 210.97 15.7167 211.936 13.45C212.903 11.1833 214.236 9.18333 215.936 7.45C217.67 5.68333 219.67 4.3 221.936 3.3C224.203 2.3 226.636 1.8 229.236 1.8C231.803 1.8 234.22 2.3 236.486 3.3C238.753 4.3 240.753 5.68333 242.486 7.45C244.253 9.18333 245.62 11.1833 246.586 13.45C247.586 15.7167 248.086 18.1167 248.086 20.65C248.086 23.25 247.586 25.6833 246.586 27.95C245.62 30.2167 244.253 32.2167 242.486 33.95C240.753 35.65 238.753 36.9833 236.486 37.95C234.22 38.9167 231.803 39.4 229.236 39.4C226.636 39.4 224.203 38.9167 221.936 37.95C219.67 36.9833 217.67 35.65 215.936 33.95C214.236 32.2167 212.903 30.2167 211.936 27.95C210.97 25.6833 210.486 23.25 210.486 20.65ZM217.986 20.65C217.986 22.2833 218.27 23.8167 218.836 25.25C219.436 26.65 220.253 27.9 221.286 29C222.353 30.0667 223.57 30.9 224.936 31.5C226.336 32.1 227.853 32.4 229.486 32.4C231.053 32.4 232.503 32.1 233.836 31.5C235.203 30.9 236.386 30.0667 237.386 29C238.386 27.9 239.17 26.65 239.736 25.25C240.303 23.8167 240.586 22.2833 240.586 20.65C240.586 18.9833 240.286 17.4333 239.686 16C239.12 14.5667 238.32 13.3167 237.286 12.25C236.286 11.15 235.103 10.3 233.736 9.7C232.37 9.1 230.886 8.8 229.286 8.8C227.686 8.8 226.203 9.1 224.836 9.7C223.47 10.3 222.27 11.15 221.236 12.25C220.203 13.3167 219.403 14.5667 218.836 16C218.27 17.4333 217.986 18.9833 217.986 20.65ZM255.314 39V0.699998H255.364L275.814 29.7L272.714 29L293.114 0.699998H293.214V39H285.964V17.05L286.414 20.8L273.964 38.5H273.864L261.064 20.8L262.314 17.35V39H255.314Z" fill="white"/>
<path d="M0.773438 2.2V1.2H-0.226562V2.2H0.773438ZM25.8734 2.2H26.8734V1.2H25.8734V2.2ZM25.8734 9.2V10.2H26.8734V9.2H25.8734ZM8.02344 9.2V8.2H7.02344V9.2H8.02344ZM8.02344 17.05H7.02344V18.05H8.02344V17.05ZM23.8234 17.05H24.8234V16.05H23.8234V17.05ZM23.8234 24.05V25.05H24.8234V24.05H23.8234ZM8.02344 24.05V23.05H7.02344V24.05H8.02344ZM8.02344 32H7.02344V33H8.02344V32ZM26.5734 32H27.5734V31H26.5734V32ZM26.5734 39V40H27.5734V39H26.5734ZM0.773438 39H-0.226562V40H0.773438V39ZM0.773438 3.2H25.8734V1.2H0.773438V3.2ZM24.8734 2.2V9.2H26.8734V2.2H24.8734ZM25.8734 8.2H8.02344V10.2H25.8734V8.2ZM7.02344 9.2V17.05H9.02344V9.2H7.02344ZM8.02344 18.05H23.8234V16.05H8.02344V18.05ZM22.8234 17.05V24.05H24.8234V17.05H22.8234ZM23.8234 23.05H8.02344V25.05H23.8234V23.05ZM7.02344 24.05V32H9.02344V24.05H7.02344ZM8.02344 33H26.5734V31H8.02344V33ZM25.5734 32V39H27.5734V32H25.5734ZM26.5734 38H0.773438V40H26.5734V38ZM1.77344 39V2.2H-0.226562V39H1.77344ZM31.5742 2.2V1.2H30.5742V2.2H31.5742ZM56.3742 2.2H57.3742V1.2H56.3742V2.2ZM56.3742 9.2V10.2H57.3742V9.2H56.3742ZM47.4242 9.2V8.2H46.4242V9.2H47.4242ZM47.4242 39V40H48.4242V39H47.4242ZM40.1742 39H39.1742V40H40.1742V39ZM40.1742 9.2H41.1742V8.2H40.1742V9.2ZM31.5742 9.2H30.5742V10.2H31.5742V9.2ZM31.5742 3.2H56.3742V1.2H31.5742V3.2ZM55.3742 2.2V9.2H57.3742V2.2H55.3742ZM56.3742 8.2H47.4242V10.2H56.3742V8.2ZM46.4242 9.2V39H48.4242V9.2H46.4242ZM47.4242 38H40.1742V40H47.4242V38ZM41.1742 39V9.2H39.1742V39H41.1742ZM40.1742 8.2H31.5742V10.2H40.1742V8.2ZM32.5742 9.2V2.2H30.5742V9.2H32.5742ZM94.3211 2.2H95.3211V1.2H94.3211V2.2ZM94.3211 39V40H95.3211V39H94.3211ZM87.0711 39H86.0711V40H87.0711V39ZM87.0711 24.05H88.0711V23.05H87.0711V24.05ZM70.6211 24.05V23.05H69.6211V24.05H70.6211ZM70.6211 39V40H71.6211V39H70.6211ZM63.3711 39H62.3711V40H63.3711V39ZM63.3711 2.2V1.2H62.3711V2.2H63.3711ZM70.6211 2.2H71.6211V1.2H70.6211V2.2ZM70.6211 17.05H69.6211V18.05H70.6211V17.05ZM87.0711 17.05V18.05H88.0711V17.05H87.0711ZM87.0711 2.2V1.2H86.0711V2.2H87.0711ZM93.3211 2.2V39H95.3211V2.2H93.3211ZM94.3211 38H87.0711V40H94.3211V38ZM88.0711 39V24.05H86.0711V39H88.0711ZM87.0711 23.05H70.6211V25.05H87.0711V23.05ZM69.6211 24.05V39H71.6211V24.05H69.6211ZM70.6211 38H63.3711V40H70.6211V38ZM64.3711 39V2.2H62.3711V39H64.3711ZM63.3711 3.2H70.6211V1.2H63.3711V3.2ZM69.6211 2.2V17.05H71.6211V2.2H69.6211ZM70.6211 18.05H87.0711V16.05H70.6211V18.05ZM88.0711 17.05V2.2H86.0711V17.05H88.0711ZM87.0711 3.2H94.3211V1.2H87.0711V3.2ZM103.801 2.2V1.2H102.801V2.2H103.801ZM128.901 2.2H129.901V1.2H128.901V2.2ZM128.901 9.2V10.2H129.901V9.2H128.901ZM111.051 9.2V8.2H110.051V9.2H111.051ZM111.051 17.05H110.051V18.05H111.051V17.05ZM126.851 17.05H127.851V16.05H126.851V17.05ZM126.851 24.05V25.05H127.851V24.05H126.851ZM111.051 24.05V23.05H110.051V24.05H111.051ZM111.051 32H110.051V33H111.051V32ZM129.601 32H130.601V31H129.601V32ZM129.601 39V40H130.601V39H129.601ZM103.801 39H102.801V40H103.801V39ZM103.801 3.2H128.901V1.2H103.801V3.2ZM127.901 2.2V9.2H129.901V2.2H127.901ZM128.901 8.2H111.051V10.2H128.901V8.2ZM110.051 9.2V17.05H112.051V9.2H110.051ZM111.051 18.05H126.851V16.05H111.051V18.05ZM125.851 17.05V24.05H127.851V17.05H125.851ZM126.851 23.05H111.051V25.05H126.851V23.05ZM110.051 24.05V32H112.051V24.05H110.051ZM111.051 33H129.601V31H111.051V33ZM128.601 32V39H130.601V32H128.601ZM129.601 38H103.801V40H129.601V38ZM104.801 39V2.2H102.801V39H104.801ZM170.052 40.5L169.381 41.2421L169.667 41.5H170.052V40.5ZM142.152 15.3L142.639 14.4268L141.481 16.0421L142.152 15.3ZM144.302 16.5L145.302 16.4933L145.298 15.9107L144.789 15.6268L144.302 16.5ZM144.452 39V40H145.458L145.452 38.9933L144.452 39ZM137.102 39H136.102V40H137.102V39ZM137.102 0.749998V-0.250002H136.102V0.749998H137.102ZM137.402 0.749998L138.078 0.0138518L137.791 -0.250002H137.402V0.749998ZM164.702 25.85L164.301 26.7662L165.378 25.1139L164.702 25.85ZM163.102 25.15L162.102 25.1565L162.106 25.8059L162.701 26.0662L163.102 25.15ZM162.952 2.2V1.2H161.945L161.952 2.20653L162.952 2.2ZM170.252 2.2H171.252V1.2H170.252V2.2ZM170.252 40.5V41.5H171.252V40.5H170.252ZM170.722 39.7579L142.822 14.5579L141.481 16.0421L169.381 41.2421L170.722 39.7579ZM141.664 16.1732L143.814 17.3732L144.789 15.6268L142.639 14.4268L141.664 16.1732ZM143.302 16.5067L143.452 39.0067L145.452 38.9933L145.302 16.4933L143.302 16.5067ZM144.452 38H137.102V40H144.452V38ZM138.102 39V0.749998H136.102V39H138.102ZM137.102 1.75H137.402V-0.250002H137.102V1.75ZM136.725 1.48614L164.025 26.5861L165.378 25.1139L138.078 0.0138518L136.725 1.48614ZM165.102 24.9338L163.502 24.2338L162.701 26.0662L164.301 26.7662L165.102 24.9338ZM164.102 25.1435L163.952 2.19346L161.952 2.20653L162.102 25.1565L164.102 25.1435ZM162.952 3.2H170.252V1.2H162.952V3.2ZM169.252 2.2V40.5H171.252V2.2H169.252ZM170.252 39.5H170.052V41.5H170.252V39.5ZM197.029 3.1L196.712 4.04868L196.72 4.05133L196.728 4.05385L197.029 3.1ZM201.529 5.6L200.853 6.33715L200.863 6.34691L200.874 6.35636L201.529 5.6ZM204.329 9.5L203.404 9.88177L203.407 9.88897L204.329 9.5ZM204.579 19.1L203.624 18.8029L203.621 18.8127L203.618 18.8225L204.579 19.1ZM202.379 23.2L201.612 22.5578L201.607 22.5639L201.602 22.5702L202.379 23.2ZM198.379 26.2L198.781 27.1153L198.789 27.112L198.796 27.1085L198.379 26.2ZM186.979 27.3V26.3H185.979V27.3H186.979ZM186.979 39V40H187.979V39H186.979ZM179.729 39H178.729V40H179.729V39ZM179.729 2.2V1.2H178.729V2.2H179.729ZM194.879 19.75L195.326 20.6444L195.326 20.6444L194.879 19.75ZM196.579 18.35L195.784 17.7425L195.773 17.7577L195.762 17.7733L196.579 18.35ZM197.479 16.6L196.525 16.2989L196.52 16.3155L196.515 16.3324L197.479 16.6ZM197.579 13.35L196.591 13.506L196.596 13.5366L196.602 13.5669L197.579 13.35ZM196.879 11.45L196.013 11.951L196.013 11.951L196.879 11.45ZM195.179 9.85L194.67 10.7109L194.678 10.7158L194.686 10.7206L195.179 9.85ZM186.979 9.2V8.2H185.979V9.2H186.979ZM186.979 20.3H185.979V21.3H186.979V20.3ZM198.929 24.8L199.77 24.2604L199.467 23.7873L198.905 23.8003L198.929 24.8ZM208.029 39V40H209.857L208.87 38.4604L208.029 39ZM199.579 39L198.746 39.5533L199.042 40H199.579V39ZM190.279 25L190.255 24.0003L188.442 24.0422L189.446 25.5533L190.279 25ZM190.879 3.2C193.093 3.2 195.033 3.489 196.712 4.04868L197.345 2.15131C195.424 1.511 193.264 1.2 190.879 1.2V3.2ZM196.728 4.05385C198.411 4.58356 199.776 5.35052 200.853 6.33715L202.204 4.86284C200.881 3.64948 199.246 2.74977 197.329 2.14615L196.728 4.05385ZM200.874 6.35636C201.988 7.31912 202.829 8.49005 203.404 9.88176L205.253 9.11824C204.561 7.44328 203.536 6.01421 202.183 4.84363L200.874 6.35636ZM203.407 9.88897C203.981 11.2471 204.279 12.8116 204.279 14.6H206.279C206.279 12.5884 205.943 10.7529 205.25 9.11103L203.407 9.88897ZM204.279 14.6C204.279 15.9946 204.062 17.3945 203.624 18.8029L205.533 19.3971C206.029 17.8055 206.279 16.2054 206.279 14.6H204.279ZM203.618 18.8225C203.224 20.1846 202.559 21.4278 201.612 22.5578L203.145 23.8422C204.265 22.5055 205.066 21.0154 205.539 19.3775L203.618 18.8225ZM201.602 22.5702C200.712 23.6671 199.51 24.579 197.961 25.2915L198.796 27.1085C200.581 26.2877 202.045 25.1996 203.155 23.8298L201.602 22.5702ZM197.976 25.2847C196.473 25.9461 194.553 26.3 192.179 26.3V28.3C194.737 28.3 196.951 27.9206 198.781 27.1153L197.976 25.2847ZM192.179 26.3H186.979V28.3H192.179V26.3ZM185.979 27.3V39H187.979V27.3H185.979ZM186.979 38H179.729V40H186.979V38ZM180.729 39V2.2H178.729V39H180.729ZM179.729 3.2H190.879V1.2H179.729V3.2ZM192.129 21.3C193.333 21.3 194.414 21.1001 195.326 20.6444L194.431 18.8556C193.876 19.1333 193.124 19.3 192.129 19.3V21.3ZM195.326 20.6444C196.18 20.2174 196.884 19.6507 197.395 18.9267L195.762 17.7733C195.473 18.1826 195.044 18.5493 194.431 18.8556L195.326 20.6444ZM197.373 18.9574C197.873 18.304 198.237 17.6073 198.442 16.8676L196.515 16.3324C196.387 16.7927 196.151 17.2627 195.784 17.7425L197.373 18.9574ZM198.432 16.9011C198.656 16.1932 198.779 15.507 198.779 14.85H196.779C196.779 15.2597 196.701 15.7401 196.525 16.2989L198.432 16.9011ZM198.779 14.85C198.779 14.3492 198.696 13.7707 198.555 13.1331L196.602 13.5669C196.727 14.1293 196.779 14.5508 196.779 14.85H198.779ZM198.566 13.194C198.445 12.4232 198.164 11.6739 197.744 10.949L196.013 11.951C196.327 12.4928 196.512 13.0101 196.591 13.506L198.566 13.194ZM197.744 10.949C197.271 10.1327 196.561 9.4826 195.671 8.97944L194.686 10.7206C195.33 11.0841 195.752 11.5006 196.013 11.951L197.744 10.949ZM195.687 8.98907C194.742 8.43078 193.543 8.2 192.179 8.2V10.2C193.347 10.2 194.148 10.4026 194.67 10.7109L195.687 8.98907ZM192.179 8.2H186.979V10.2H192.179V8.2ZM185.979 9.2V20.3H187.979V9.2H185.979ZM186.979 21.3H192.129V19.3H186.979V21.3ZM198.087 25.3396L207.187 39.5396L208.87 38.4604L199.77 24.2604L198.087 25.3396ZM208.029 38H199.579V40H208.029V38ZM200.411 38.4467L191.111 24.4467L189.446 25.5533L198.746 39.5533L200.411 38.4467ZM190.302 25.9997L198.952 25.7997L198.905 23.8003L190.255 24.0003L190.302 25.9997ZM211.936 13.45L212.856 13.8423L212.856 13.8423L211.936 13.45ZM215.936 7.45L215.223 6.74966L215.222 6.74979L215.936 7.45ZM221.936 3.3L221.533 2.38508L221.533 2.38508L221.936 3.3ZM236.486 3.3L236.89 2.38508L236.89 2.38508L236.486 3.3ZM242.486 7.45L241.773 8.15034L241.779 8.15714L241.786 8.16381L242.486 7.45ZM246.586 13.45L245.666 13.8423L245.671 13.8536L246.586 13.45ZM246.586 27.95L245.671 27.5463L245.666 27.5577L246.586 27.95ZM242.486 33.95L243.187 34.6639L243.187 34.6638L242.486 33.95ZM236.486 37.95L236.879 38.8698L236.879 38.8698L236.486 37.95ZM221.936 37.95L222.329 37.0302L222.329 37.0302L221.936 37.95ZM215.936 33.95L215.222 34.6502L215.229 34.6571L215.236 34.6639L215.936 33.95ZM211.936 27.95L212.856 27.5577L212.856 27.5577L211.936 27.95ZM218.836 25.25L217.906 25.6177L217.912 25.6309L217.917 25.6439L218.836 25.25ZM221.286 29L220.557 29.6847L220.568 29.6961L220.579 29.7071L221.286 29ZM224.936 31.5L224.534 32.4157L224.542 32.4191L224.936 31.5ZM233.836 31.5L233.434 30.5843L233.426 30.5881L233.836 31.5ZM237.386 29L238.116 29.6839L238.121 29.6783L238.126 29.6727L237.386 29ZM239.736 25.25L240.663 25.6252L240.666 25.6177L239.736 25.25ZM239.686 16L238.756 16.3677L238.76 16.3769L238.764 16.3861L239.686 16ZM237.286 12.25L236.546 12.9227L236.557 12.9344L236.568 12.9458L237.286 12.25ZM233.736 9.7L233.334 10.6156L233.736 9.7ZM221.236 12.25L221.955 12.9458L221.96 12.9403L221.965 12.9347L221.236 12.25ZM218.836 16L219.766 16.3677L219.766 16.3677L218.836 16ZM211.486 20.65C211.486 18.2476 211.944 15.9814 212.856 13.8423L211.016 13.0577C209.995 15.4519 209.486 17.9857 209.486 20.65H211.486ZM212.856 13.8423C213.775 11.6884 215.039 9.79327 216.65 8.15021L215.222 6.74979C213.434 8.5734 212.031 10.6782 211.016 13.0577L212.856 13.8423ZM216.65 8.15034C218.295 6.47432 220.189 5.16376 222.34 4.21492L221.533 2.38508C219.15 3.43623 217.045 4.89235 215.223 6.74966L216.65 8.15034ZM222.34 4.21492C224.473 3.27379 226.768 2.8 229.236 2.8V0.799999C226.504 0.799999 223.933 1.32621 221.533 2.38508L222.34 4.21492ZM229.236 2.8C231.669 2.8 233.948 3.27305 236.083 4.21492L236.89 2.38508C234.492 1.32694 231.937 0.799999 229.236 0.799999V2.8ZM236.083 4.21492C238.233 5.16376 240.128 6.47432 241.773 8.15034L243.2 6.74966C241.378 4.89235 239.273 3.43623 236.89 2.38508L236.083 4.21492ZM241.786 8.16381C243.46 9.80579 244.751 11.6967 245.666 13.8423L247.506 13.0577C246.488 10.67 245.046 8.56087 243.187 6.73619L241.786 8.16381ZM245.671 13.8536C246.614 15.9902 247.086 18.2524 247.086 20.65H249.086C249.086 17.9809 248.559 15.4431 247.501 13.0464L245.671 13.8536ZM247.086 20.65C247.086 23.118 246.613 25.4131 245.671 27.5464L247.501 28.3536C248.56 25.9535 249.086 23.382 249.086 20.65H247.086ZM245.666 27.5577C244.751 29.7033 243.46 31.5942 241.786 33.2362L243.187 34.6638C245.046 32.8391 246.488 30.73 247.506 28.3423L245.666 27.5577ZM241.786 33.2361C240.143 34.8475 238.248 36.1116 236.094 37.0302L236.879 38.8698C239.258 37.8551 241.363 36.4525 243.187 34.6639L241.786 33.2361ZM236.094 37.0302C233.957 37.9417 231.674 38.4 229.236 38.4V40.4C231.932 40.4 234.483 39.8916 236.879 38.8698L236.094 37.0302ZM229.236 38.4C226.764 38.4 224.464 37.941 222.329 37.0302L221.544 38.8698C223.941 39.8923 226.509 40.4 229.236 40.4V38.4ZM222.329 37.0302C220.175 36.1116 218.28 34.8475 216.637 33.2361L215.236 34.6639C217.06 36.4525 219.165 37.8551 221.544 38.8698L222.329 37.0302ZM216.65 33.2498C215.039 31.6067 213.775 29.7116 212.856 27.5577L211.016 28.3423C212.031 30.7218 213.434 32.8266 215.222 34.6502L216.65 33.2498ZM212.856 27.5577C211.945 25.4218 211.486 23.1227 211.486 20.65H209.486C209.486 23.3773 209.994 25.9448 211.016 28.3423L212.856 27.5577ZM216.986 20.65C216.986 22.4016 217.291 24.0604 217.906 25.6177L219.766 24.8823C219.249 23.5729 218.986 22.1651 218.986 20.65H216.986ZM217.917 25.6439C218.563 27.1502 219.443 28.4988 220.557 29.6847L222.015 28.3153C221.063 27.3012 220.31 26.1498 219.755 24.8561L217.917 25.6439ZM220.579 29.7071C221.733 30.8607 223.053 31.7651 224.534 32.4156L225.338 30.5844C224.087 30.0348 222.973 29.2727 221.993 28.2929L220.579 29.7071ZM224.542 32.4191C226.076 33.0763 227.727 33.4 229.486 33.4V31.4C227.979 31.4 226.597 31.1237 225.33 30.5809L224.542 32.4191ZM229.486 33.4C231.184 33.4 232.775 33.0741 234.247 32.4119L233.426 30.5881C232.231 31.1259 230.922 31.4 229.486 31.4V33.4ZM234.238 32.4156C235.726 31.7625 237.022 30.8513 238.116 29.6839L236.657 28.3161C235.751 29.2821 234.68 30.0375 233.434 30.5844L234.238 32.4156ZM238.126 29.6727C239.207 28.4839 240.053 27.1328 240.663 25.6252L238.809 24.8748C238.286 26.1672 237.566 27.3161 236.646 28.3273L238.126 29.6727ZM240.666 25.6177C241.282 24.0604 241.586 22.4016 241.586 20.65H239.586C239.586 22.1651 239.324 23.5729 238.806 24.8823L240.666 25.6177ZM241.586 20.65C241.586 18.8605 241.264 17.1782 240.609 15.6139L238.764 16.3861C239.309 17.6885 239.586 19.1062 239.586 20.65H241.586ZM240.616 15.6323C240.003 14.0815 239.133 12.7188 238.005 11.5542L236.568 12.9458C237.507 13.9145 238.236 15.0518 238.756 16.3677L240.616 15.6323ZM238.026 11.5773C236.932 10.3731 235.633 9.44051 234.138 8.78435L233.334 10.6156C234.573 11.1595 235.641 11.9269 236.546 12.9227L238.026 11.5773ZM234.138 8.78435C232.636 8.1248 231.015 7.8 229.286 7.8V9.8C230.758 9.8 232.103 10.0752 233.334 10.6156L234.138 8.78435ZM229.286 7.8C227.558 7.8 225.937 8.1248 224.434 8.78435L225.238 10.6156C226.469 10.0752 227.815 9.8 229.286 9.8V7.8ZM224.434 8.78435C222.943 9.43915 221.632 10.3682 220.507 11.5653L221.965 12.9347C222.907 11.9318 223.996 11.1608 225.238 10.6156L224.434 8.78435ZM220.518 11.5542C219.39 12.7188 218.519 14.0815 217.906 15.6323L219.766 16.3677C220.286 15.0518 221.016 13.9145 221.955 12.9458L220.518 11.5542ZM217.906 15.6323C217.29 17.1919 216.986 18.8678 216.986 20.65H218.986C218.986 19.0989 219.25 17.6747 219.766 16.3677L217.906 15.6323ZM255.314 39H254.314V40H255.314V39ZM255.314 0.699998V-0.300002H254.314V0.699998H255.314ZM255.364 0.699998L256.182 0.123703L255.883 -0.300002H255.364V0.699998ZM275.814 29.7L275.594 30.6754L278.13 31.248L276.632 29.1237L275.814 29.7ZM272.714 29L271.903 28.4152L271.019 29.6423L272.494 29.9754L272.714 29ZM293.114 0.699998V-0.300002H292.603L292.303 0.115241L293.114 0.699998ZM293.214 0.699998H294.214V-0.300002H293.214V0.699998ZM293.214 39V40H294.214V39H293.214ZM285.964 39H284.964V40H285.964V39ZM285.964 17.05L286.957 16.9309L284.964 17.05H285.964ZM286.414 20.8L287.232 21.3753L287.453 21.0616L287.407 20.6809L286.414 20.8ZM273.964 38.5V39.5H274.484L274.782 39.0753L273.964 38.5ZM273.864 38.5L273.054 39.086L273.354 39.5H273.864V38.5ZM261.064 20.8L260.124 20.4594L259.944 20.957L260.254 21.386L261.064 20.8ZM262.314 17.35H263.314L261.374 17.0093L262.314 17.35ZM262.314 39V40H263.314V39H262.314ZM256.314 39V0.699998H254.314V39H256.314ZM255.314 1.7H255.364V-0.300002H255.314V1.7ZM254.547 1.27629L274.997 30.2763L276.632 29.1237L256.182 0.123703L254.547 1.27629ZM276.035 28.7246L272.935 28.0246L272.494 29.9754L275.594 30.6754L276.035 28.7246ZM273.526 29.5848L293.926 1.28476L292.303 0.115241L271.903 28.4152L273.526 29.5848ZM293.114 1.7H293.214V-0.300002H293.114V1.7ZM292.214 0.699998V39H294.214V0.699998H292.214ZM293.214 38H285.964V40H293.214V38ZM286.964 39V17.05H284.964V39H286.964ZM284.972 17.1691L285.422 20.9191L287.407 20.6809L286.957 16.9309L284.972 17.1691ZM285.597 20.2247L273.147 37.9247L274.782 39.0753L287.232 21.3753L285.597 20.2247ZM273.964 37.5H273.864V39.5H273.964V37.5ZM274.675 37.914L261.875 20.214L260.254 21.386L273.054 39.086L274.675 37.914ZM262.005 21.1406L263.255 17.6906L261.374 17.0093L260.124 20.4594L262.005 21.1406ZM261.314 17.35V39H263.314V17.35H261.314ZM262.314 38H255.314V40H262.314V38Z" fill="white"/>
</svg>
