<svg width="24" height="24" viewBox="0 0 24 24" fill="none" xmlns="http://www.w3.org/2000/svg">
<path d="M6.28003 21.9998C7.10751 21.9998 7.90109 21.6711 8.48621 21.0859C9.07132 20.5008 9.40003 19.7072 9.40003 18.8798C9.40003 18.0523 9.07132 17.2587 8.48621 16.6736C7.90109 16.0885 7.10751 15.7598 6.28003 15.7598C5.45256 15.7598 4.65897 16.0885 4.07386 16.6736C3.48875 17.2587 3.16003 18.0523 3.16003 18.8798C3.16003 19.7072 3.48875 20.5008 4.07386 21.0859C4.65897 21.6711 5.45256 21.9998 6.28003 21.9998Z" stroke="black" stroke-width="1.5" stroke-linecap="round" stroke-linejoin="round"/>
<path d="M20.84 16.7998V4.59985C20.84 1.99985 19.21 1.63985 17.56 2.08985L11.32 3.78985C10.18 4.09985 9.40002 4.99985 9.40002 6.29985V18.8699" stroke="black" stroke-width="1.5" stroke-linecap="round" stroke-linejoin="round"/>
<path d="M9.40002 9.5199L20.84 6.3999M17.72 19.9199C18.5475 19.9199 19.3411 19.5912 19.9262 19.0061C20.5113 18.421 20.84 17.6274 20.84 16.7999C20.84 15.9724 20.5113 15.1788 19.9262 14.5937C19.3411 14.0086 18.5475 13.6799 17.72 13.6799C16.8925 13.6799 16.099 14.0086 15.5139 14.5937C14.9287 15.1788 14.6 15.9724 14.6 16.7999C14.6 17.6274 14.9287 18.421 15.5139 19.0061C16.099 19.5912 16.8925 19.9199 17.72 19.9199Z" stroke="black" stroke-width="1.5" stroke-linecap="round" stroke-linejoin="round"/>
</svg>
