<svg width="24" height="24" viewBox="0 0 24 24" fill="none" xmlns="http://www.w3.org/2000/svg">
<path d="M22 10V9C22 4 20 2 15 2H9C4 2 2 4 2 9V15C2 20 4 22 9 22H11M15.27 22C15.4591 22 15.6464 21.9628 15.8211 21.8904C15.9958 21.818 16.1545 21.712 16.2882 21.5782C16.422 21.4445 16.528 21.2858 16.6004 21.1111C16.6728 20.9364 16.71 20.7491 16.71 20.56C16.71 20.3709 16.6728 20.1836 16.6004 20.0089C16.528 19.8342 16.422 19.6755 16.2882 19.5418C16.1545 19.4081 15.9958 19.302 15.8211 19.2296C15.6464 19.1572 15.4591 19.12 15.27 19.12C14.8881 19.12 14.5218 19.2717 14.2518 19.5418C13.9817 19.8118 13.83 20.1781 13.83 20.56C13.83 20.9419 13.9817 21.3082 14.2518 21.5782C14.5218 21.8483 14.8881 22 15.27 22Z" stroke="black" stroke-width="1.5" stroke-linecap="round" stroke-linejoin="round"/>
<path d="M22 19.6V13.96C22 12.76 21.25 12.59 20.48 12.8L17.59 13.59C17.07 13.73 16.7 14.15 16.7 14.75V20.57" stroke="black" stroke-width="1.5" stroke-linecap="round" stroke-linejoin="round"/>
<path d="M16.71 16.43L22 14.99M20.56 21.04C20.9419 21.04 21.3082 20.8883 21.5782 20.6182C21.8483 20.3482 22 19.9819 22 19.6C22 19.2181 21.8483 18.8518 21.5782 18.5818C21.3082 18.3117 20.9419 18.16 20.56 18.16C20.1781 18.16 19.8118 18.3117 19.5418 18.5818C19.2717 18.8518 19.12 19.2181 19.12 19.6C19.12 19.9819 19.2717 20.3482 19.5418 20.6182C19.8118 20.8883 20.1781 21.04 20.56 21.04Z" stroke="black" stroke-width="1.5" stroke-linecap="round" stroke-linejoin="round"/>
</svg>
